<?xml version="1.0" encoding="UTF-8" standalone="no" ?>
<!DOCTYPE svg PUBLIC "-//W3C//DTD SVG 1.1//EN" "http://www.w3.org/Graphics/SVG/1.1/DTD/svg11.dtd">
<svg xmlns="http://www.w3.org/2000/svg" xmlns:xlink="http://www.w3.org/1999/xlink" version="1.1" width="700" height="200" viewBox="0 0 700 200" xml:space="preserve">
<desc>Created with Fabric.js 5.2.4</desc>
<defs>
</defs>
<rect x="0" y="0" width="100%" height="100%" fill="transparent"></rect>
<g transform="matrix(1 0 0 1 350 100)" id="9f68455e-5b12-46c0-86eb-530832fa8907"  >
<rect style="stroke: none; stroke-width: 1; stroke-dasharray: none; stroke-linecap: butt; stroke-dashoffset: 0; stroke-linejoin: miter; stroke-miterlimit: 4; fill: rgb(255,255,255); fill-rule: nonzero; opacity: 1; visibility: hidden;" vector-effect="non-scaling-stroke"  x="-350" y="-100" rx="0" ry="0" width="700" height="200" />
</g>
<g transform="matrix(0 0 0 0 0 0)" id="2f94bd09-6b2b-4ff1-bd81-0ee01b6205b6"  >
</g>
<g transform="matrix(0 0 0 0 0 0)"  >
<g style=""   >
</g>
</g>
<g transform="matrix(0 0 0 0 0 0)"  >
<g style=""   >
</g>
</g>
<g transform="matrix(0 0 0 0 0 0)"  >
<g style=""   >
</g>
</g>
<g transform="matrix(0 0 0 0 0 0)"  >
<g style=""   >
</g>
</g>
<g transform="matrix(2.24 0 0 2.24 188.02 86.78)"  >
<path style="stroke: rgb(0,0,0); stroke-width: 0; stroke-dasharray: none; stroke-linecap: butt; stroke-dashoffset: 0; stroke-linejoin: miter; stroke-miterlimit: 4; fill: rgb(0,0,0); fill-rule: nonzero; opacity: 1;" vector-effect="non-scaling-stroke"  transform=" translate(-67.6, -23.5)" d="M 0.733 14.631 L 10.190000000000001 14.631 L 10.190000000000001 45.845 L 0.733 45.845 L 0.733 14.631 z M 5.473 0.398 C 2.3 0.398 0 2.397 0 5.233 C 0 8.046 2.3 10.067 5.473 10.067 C 8.647 10.067 10.947 8.047 10.947 5.2330000000000005 C 10.947 2.3970000000000007 8.646999999999998 0.3980000000000006 5.472999999999999 0.3980000000000006 z M 37.28 35.29 C 35.434 37.748 33.983000000000004 38.722 31.607 38.722 C 28.877 38.722 27.643 37.317 27.643 32.825 L 27.643 14.631 L 18.187 14.631 L 18.187 34.007999999999996 C 18.187 41.809999999999995 21.147000000000002 46.598 28.087000000000003 46.598 C 32.440000000000005 46.598 35.444 44.623 38.107 41.513 L 38.339999999999996 41.513 L 39.019999999999996 45.842999999999996 L 46.736999999999995 45.842999999999996 L 46.736999999999995 14.63 L 37.28 14.63 L 37.28 35.29 z M 57.107 14.625 L 56.214 14.625 L 56.214 21.48 L 57.107 21.48 L 57.107 14.625 z M 60.03 17.895 C 60.03 17.177 59.96 16.447 59.917 15.753 L 59.96 15.753 L 60.717 17.168 L 63.254 21.480999999999998 L 64.17399999999999 21.480999999999998 L 64.17399999999999 14.624999999999998 L 63.32699999999999 14.624999999999998 L 63.32699999999999 18.171999999999997 C 63.32699999999999 18.888999999999996 63.39399999999999 19.661999999999995 63.43999999999999 20.351999999999997 L 63.39699999999999 20.351999999999997 L 62.63999999999999 18.931999999999995 L 60.10399999999999 14.621999999999996 L 59.18399999999999 14.621999999999996 L 59.18399999999999 21.476999999999997 L 60.02999999999999 21.476999999999997 L 60.02999999999999 17.894999999999996 z M 67.71000000000001 21.483999999999998 L 68.60400000000001 21.483999999999998 L 68.60400000000001 15.363999999999997 L 70.72400000000002 15.363999999999997 L 70.72400000000002 14.627999999999997 L 65.59 14.627999999999997 L 65.59 15.364999999999997 L 67.71000000000001 15.364999999999997 L 67.71000000000001 21.483999999999995 z M 73.024 18.25 L 75.68 18.25 L 75.68 17.513 L 73.024 17.513 L 73.024 15.365000000000002 L 76.174 15.365000000000002 L 76.174 14.628000000000002 L 72.13 14.628000000000002 L 72.13 21.484 L 76.28 21.484 L 76.28 20.744000000000003 L 73.024 20.744000000000003 L 73.024 18.25 z M 80.987 18.481 L 82.777 21.481 L 81.764 21.481 L 80.077 18.582 L 78.81 18.582 L 78.81 21.48 L 77.917 21.48 L 77.917 14.625 L 80.114 14.625 C 81.54 14.625 82.56700000000001 15.127 82.56700000000001 16.555 C 82.56700000000001 17.624 81.94000000000001 18.253 80.98700000000001 18.480999999999998 z M 81.67699999999999 16.555000000000003 C 81.67699999999999 15.655000000000003 81.077 15.332000000000003 79.987 15.332000000000003 L 78.81 15.332000000000003 L 78.81 17.875000000000004 L 79.98700000000001 17.875000000000004 C 81.07700000000001 17.875000000000004 81.677 17.445000000000004 81.677 16.555000000000003 z M 88.297 18.175000000000004 C 88.297 18.892000000000003 88.36699999999999 19.665000000000003 88.41 20.355000000000004 L 88.36699999999999 20.355000000000004 L 87.60999999999999 18.935000000000002 L 85.07399999999998 14.625000000000004 L 84.15399999999998 14.625000000000004 L 84.15399999999998 21.480000000000004 L 85 21.480000000000004 L 85 17.895000000000003 C 85 17.177000000000003 84.934 16.447000000000003 84.887 15.753000000000004 L 84.93 15.753000000000004 L 85.68700000000001 17.168000000000003 L 88.22400000000002 21.481 L 89.14400000000002 21.481 L 89.14400000000002 14.625000000000002 L 88.29700000000003 14.625000000000002 L 88.29700000000003 18.175 z M 93.67 14.625000000000004 L 96.04 21.480000000000004 L 95.09700000000001 21.480000000000004 L 94.43 19.390000000000004 L 91.87400000000001 19.390000000000004 L 91.2 21.480000000000004 L 90.294 21.480000000000004 L 92.667 14.625000000000004 L 93.67 14.625000000000004 z M 93.874 17.653000000000002 C 93.62352103223348 16.887572519864513 93.3888047731587 16.117076390998292 93.17 15.342000000000017 L 93.127 15.342000000000002 C 92.91538456064269 16.11801377087946 92.68431169839332 16.88859008351776 92.434 17.653000000000006 L 92.097 18.697000000000003 L 94.207 18.697000000000003 L 93.874 17.653000000000002 z M 98.06 21.483000000000004 L 98.95400000000001 21.483000000000004 L 98.95400000000001 15.365000000000004 L 101.07400000000001 15.365000000000004 L 101.07400000000001 14.628000000000004 L 95.94 14.628000000000004 L 95.94 15.365000000000004 L 98.06 15.365000000000004 L 98.06 21.484 z M 103.37700000000001 14.625000000000004 L 102.48400000000001 14.625000000000004 L 102.48400000000001 21.480000000000004 L 103.37700000000001 21.480000000000004 L 103.37700000000001 14.625000000000004 z M 111.037 18.028000000000002 C 111.037 20.225 109.80000000000001 21.608000000000004 108.04 21.608000000000004 C 106.28 21.608000000000004 105.04400000000001 20.225000000000005 105.04400000000001 18.028000000000006 C 105.04400000000001 15.831000000000007 106.28000000000002 14.501000000000005 108.04 14.501000000000005 C 109.804 14.501000000000005 111.037 15.838000000000005 111.037 18.028000000000006 z M 110.117 18.028000000000002 C 110.117 16.320000000000004 109.29400000000001 15.267000000000003 108.04 15.267000000000003 C 106.787 15.267000000000003 105.96700000000001 16.320000000000004 105.96700000000001 18.028000000000002 C 105.96700000000001 19.736 106.79 20.842000000000002 108.04 20.842000000000002 C 109.29 20.842000000000002 110.117 19.736 110.117 18.028000000000002 z M 117.694 21.484 L 117.694 14.624000000000002 L 116.84700000000001 14.624000000000002 L 116.84700000000001 18.172000000000004 C 116.84700000000001 18.889000000000003 116.914 19.662000000000003 116.96000000000001 20.352000000000004 L 116.917 20.352000000000004 L 116.16 18.932000000000002 L 113.624 14.622000000000003 L 112.704 14.622000000000003 L 112.704 21.477000000000004 L 113.55 21.477000000000004 L 113.55 17.895000000000003 C 113.55 17.177000000000003 113.48 16.447000000000003 113.437 15.753000000000004 L 113.48 15.753000000000004 L 114.23700000000001 17.168000000000003 L 116.77400000000002 21.481 L 117.69400000000002 21.481 L 117.69400000000002 21.484 z M 122.22 14.624000000000002 L 124.59 21.480000000000004 L 123.647 21.480000000000004 L 122.98 19.390000000000004 L 120.424 19.390000000000004 L 119.75 21.480000000000004 L 118.84 21.480000000000004 L 121.214 14.625000000000004 L 122.22 14.625000000000004 z M 122.42399999999999 17.654000000000003 C 122.17337147400512 16.888284290526713 121.93865431471359 16.117451801489743 121.72 15.342000000000008 L 121.67699999999999 15.342000000000004 C 121.46 16.137000000000004 121.237 16.887000000000004 120.984 17.653000000000006 L 120.64699999999999 18.697000000000006 L 122.75699999999999 18.697000000000006 L 122.42399999999999 17.653000000000006 z M 126.58699999999999 14.624000000000004 L 125.69399999999999 14.624000000000004 L 125.69399999999999 21.480000000000004 L 129.647 21.480000000000004 L 129.647 20.740000000000006 L 126.58699999999999 20.740000000000006 L 126.58699999999999 14.625000000000005 z M 131.93699999999998 20.744000000000003 L 131.93699999999998 18.25 L 134.594 18.25 L 134.594 17.513 L 131.93699999999998 17.513 L 131.93699999999998 15.365000000000002 L 135.087 15.365000000000002 L 135.087 14.628000000000002 L 131.047 14.628000000000002 L 131.047 21.484 L 135.194 21.484 L 135.194 20.744000000000003 L 131.93699999999998 20.744000000000003 z M 60.36699999999999 29.679000000000002 L 57.10699999999999 29.679000000000002 L 57.10699999999999 26.807000000000002 L 56.21399999999999 26.807000000000002 L 56.21399999999999 33.663000000000004 L 57.10699999999999 33.663000000000004 L 57.10699999999999 30.439000000000004 L 60.36699999999999 30.439000000000004 L 60.36699999999999 33.663000000000004 L 61.25699999999999 33.663000000000004 L 61.25699999999999 26.807000000000002 L 60.36699999999999 26.807000000000002 L 60.36699999999999 29.679000000000002 z M 68.91999999999999 30.211000000000002 C 68.91999999999999 32.408 67.68399999999998 33.791000000000004 65.92399999999999 33.791000000000004 C 64.164 33.791000000000004 62.92699999999999 32.408 62.92699999999999 30.211000000000006 C 62.92699999999999 28.013000000000005 64.16399999999999 26.681000000000004 65.92399999999999 26.681000000000004 C 67.687 26.681000000000004 68.91999999999999 28.020000000000003 68.91999999999999 30.211000000000006 z M 67.99999999999999 30.211000000000002 C 67.99999999999999 28.502000000000002 67.17699999999999 27.449 65.92399999999999 27.449 C 64.66999999999999 27.449 63.849999999999994 28.502000000000002 63.849999999999994 30.211000000000002 C 63.849999999999994 31.919 64.67399999999999 33.021 65.92399999999999 33.021 C 67.17699999999999 33.021 67.99999999999999 31.919 67.99999999999999 30.211000000000002 z M 73.26999999999998 33.021 C 71.93999999999998 33.021 71.09999999999998 31.941000000000003 71.09999999999998 30.217000000000002 C 71.09999999999998 28.509000000000004 71.97999999999998 27.447000000000003 73.30699999999997 27.447000000000003 C 73.89699999999998 27.447000000000003 74.35999999999997 27.707000000000004 74.72999999999998 28.092000000000002 L 75.21999999999997 27.524 C 74.7227218927343 26.9878904192043 74.02522772547093 26.682238769583172 73.29399999999997 26.68 C 71.51399999999997 26.68 70.17999999999996 28.03 70.17999999999996 30.24 C 70.17999999999996 32.467 71.48999999999997 33.787 73.23699999999997 33.787 C 74.14699999999996 33.787 74.83399999999996 33.425 75.38699999999997 32.796 L 74.89699999999998 32.248 C 74.44699999999997 32.738 73.93999999999998 33.021 73.26999999999998 33.021 z M 80.99399999999999 29.679000000000002 L 77.73399999999998 29.679000000000002 L 77.73399999999998 26.807000000000002 L 76.83999999999997 26.807000000000002 L 76.83999999999997 33.663000000000004 L 77.73399999999998 33.663000000000004 L 77.73399999999998 30.439000000000004 L 80.99399999999999 30.439000000000004 L 80.99399999999999 33.663000000000004 L 81.88699999999999 33.663000000000004 L 81.88699999999999 26.807000000000002 L 80.99399999999999 26.807000000000002 L 80.99399999999999 29.679000000000002 z M 86.84999999999998 30.009 L 85.84999999999998 29.585 C 85.29999999999998 29.356 84.68999999999998 29.112000000000002 84.68999999999998 28.45 C 84.68999999999998 27.837 85.20999999999998 27.45 85.99699999999999 27.45 C 86.64399999999999 27.45 87.15699999999998 27.697 87.58699999999999 28.092 L 88.05999999999999 27.531 C 87.51178040220748 26.9860253461932 86.7700082405571 26.680399394955767 85.99699999999999 26.680999999999997 C 84.72399999999999 26.680999999999997 83.78999999999999 27.452999999999996 83.78999999999999 28.499 C 83.78999999999999 29.506999999999998 84.55699999999999 29.991999999999997 85.21 30.266 L 86.217 30.7 C 86.88 30.983 87.387 31.205 87.387 31.906 C 87.387 32.571 86.844 33.021 85.92 33.021 C 85.19 33.021 84.49 32.685 83.987 32.17 L 83.454 32.77 C 84.09954631822565 33.42817502936575 84.98512418469373 33.795330630751 85.907 33.787000000000006 C 87.38 33.787000000000006 88.297 32.92300000000001 88.297 31.837000000000007 C 88.294 30.820000000000007 87.66 30.34700000000001 86.85 30.009000000000007 z M 92.50699999999998 33.021 C 91.17699999999998 33.021 90.33699999999997 31.941000000000003 90.33699999999997 30.217000000000002 C 90.33699999999997 28.509000000000004 91.21699999999997 27.447000000000003 92.54399999999997 27.447000000000003 C 93.13699999999997 27.447000000000003 93.59999999999997 27.707000000000004 93.96699999999997 28.092000000000002 L 94.45699999999997 27.524 C 93.95863134593836 26.987075204262144 93.25956922609049 26.681371354960795 92.52699999999996 26.68 C 90.74699999999996 26.68 89.41699999999996 28.03 89.41699999999996 30.24 C 89.41699999999996 32.467 90.72699999999996 33.787 92.46999999999996 33.787 C 93.37999999999995 33.787 94.06699999999995 33.425 94.61999999999996 32.796 L 94.12999999999997 32.248 C 93.68399999999997 32.738 93.17699999999996 33.021 92.50699999999996 33.021 z M 100.23399999999998 29.679000000000002 L 96.97399999999998 29.679000000000002 L 96.97399999999998 26.807000000000002 L 96.07999999999997 26.807000000000002 L 96.07999999999997 33.663000000000004 L 96.97399999999998 33.663000000000004 L 96.97399999999998 30.439000000000004 L 100.23399999999998 30.439000000000004 L 100.23399999999998 33.663000000000004 L 101.12399999999998 33.663000000000004 L 101.12399999999998 26.807000000000002 L 100.23399999999998 26.807000000000002 L 100.23399999999998 29.679000000000002 z M 107.35399999999998 30.856 C 107.35399999999998 32.502 106.61999999999999 33.021 105.68999999999998 33.021 C 104.77399999999999 33.021 104.06399999999998 32.502 104.06399999999998 30.856 L 104.06399999999998 26.807000000000002 L 103.16999999999997 26.807000000000002 L 103.16999999999997 30.833000000000002 C 103.16999999999997 33.033 104.25999999999998 33.79 105.68999999999997 33.79 C 107.11999999999996 33.79 108.20699999999997 33.034 108.20699999999997 30.833 L 108.20699999999997 26.807 L 107.34999999999997 26.807 L 107.34999999999997 30.857 L 107.35399999999997 30.857 z M 111.13999999999999 26.807000000000002 L 110.24699999999999 26.807000000000002 L 110.24699999999999 33.663000000000004 L 114.19999999999999 33.663000000000004 L 114.19999999999999 32.923 L 111.13999999999999 32.923 L 111.13999999999999 26.807000000000002 z M 116.48699999999998 30.432000000000002 L 119.14399999999998 30.432000000000002 L 119.14399999999998 29.692000000000004 L 116.48699999999998 29.692000000000004 L 116.48699999999998 27.544000000000004 L 119.63699999999999 27.544000000000004 L 119.63699999999999 26.804000000000006 L 115.59699999999998 26.804000000000006 L 115.59699999999998 33.660000000000004 L 119.74399999999999 33.660000000000004 L 119.74399999999999 32.92 L 116.48699999999998 32.92 L 116.48699999999998 30.432000000000002 z" stroke-linecap="round" />
</g>
<g transform="matrix(0.23 0 0 0.23 534.42 117.14)"  >
<g style="" vector-effect="non-scaling-stroke"   >
		<g transform="matrix(45 0 0 45 -437.4 -46.8)"  >
<path style="stroke: none; stroke-width: 1; stroke-dasharray: none; stroke-linecap: butt; stroke-dashoffset: 0; stroke-linejoin: miter; stroke-miterlimit: 4; fill: rgb(0,0,0); fill-rule: nonzero; opacity: 1;" vector-effect="non-scaling-stroke"  transform=" translate(-2.73, -3.4)" d="M 5.46 4.23 L 5.21 4.23 C 5.11 5.25 4.97 6.49 3.21 6.49 L 2.4 6.49 C 1.93 6.49 1.91 6.42 1.91 6.09 L 1.91 0.7800000000000002 C 1.91 0.4400000000000002 1.91 0.30000000000000027 2.8499999999999996 0.30000000000000027 L 3.1799999999999997 0.30000000000000027 L 3.1799999999999997 2.7755575615628914e-16 C 2.82 0.030000000000000276 1.9199999999999997 0.030000000000000276 1.5099999999999998 0.030000000000000276 C 1.1199999999999997 0.030000000000000276 0.33999999999999986 0.030000000000000276 -2.220446049250313e-16 2.7755575615628914e-16 L -2.220446049250313e-16 0.30000000000000027 L 0.2299999999999998 0.30000000000000027 C 0.9999999999999998 0.30000000000000027 1.0199999999999998 0.41000000000000025 1.0199999999999998 0.7700000000000002 L 1.0199999999999998 6.0200000000000005 C 1.0199999999999998 6.380000000000001 0.9999999999999998 6.49 0.22999999999999976 6.49 L -2.498001805406602e-16 6.49 L -2.498001805406602e-16 6.8 L 5.19 6.8 z" stroke-linecap="round" />
</g>
		<g transform="matrix(45 0 0 45 -330.75 -95.62)"  >
<path style="stroke: none; stroke-width: 1; stroke-dasharray: none; stroke-linecap: butt; stroke-dashoffset: 0; stroke-linejoin: miter; stroke-miterlimit: 4; fill: rgb(0,0,0); fill-rule: nonzero; opacity: 1;" vector-effect="non-scaling-stroke"  transform=" translate(-2.62, -2.49)" d="M 2.81 0.16 C 2.77 0.04000000000000001 2.75 0 2.62 0 C 2.49 0 2.46 0.04 2.42 0.16 L 0.8099999999999998 4.24 C 0.7399999999999998 4.41 0.6199999999999999 4.720000000000001 -2.220446049250313e-16 4.720000000000001 L -2.220446049250313e-16 4.970000000000001 L 1.5499999999999998 4.970000000000001 L 1.5499999999999998 4.720000000000001 C 1.2399999999999998 4.720000000000001 1.0499999999999998 4.580000000000001 1.0499999999999998 4.380000000000001 C 1.0499999999999998 4.330000000000001 1.0599999999999998 4.3100000000000005 1.0799999999999998 4.240000000000001 C 1.0799999999999998 4.240000000000001 1.42 3.3800000000000012 1.42 3.3800000000000012 L 3.4 3.3800000000000012 L 3.8 4.400000000000001 C 3.82 4.440000000000001 3.84 4.490000000000001 3.84 4.520000000000001 C 3.84 4.7200000000000015 3.46 4.7200000000000015 3.27 4.7200000000000015 L 3.27 4.9700000000000015 L 5.24 4.9700000000000015 L 5.24 4.7200000000000015 L 5.1000000000000005 4.7200000000000015 C 4.630000000000001 4.7200000000000015 4.58 4.650000000000001 4.510000000000001 4.450000000000001 C 4.510000000000001 4.450000000000001 2.8100000000000005 0.16000000000000103 2.8100000000000005 0.16000000000000103 z M 2.41 0.87 L 3.3000000000000003 3.13 L 1.5200000000000002 3.13 z" stroke-linecap="round" />
</g>
		<g transform="matrix(45 0 0 45 -98.55 -45.45)"  >
<path style="stroke: none; stroke-width: 1; stroke-dasharray: none; stroke-linecap: butt; stroke-dashoffset: 0; stroke-linejoin: miter; stroke-miterlimit: 4; fill: rgb(0,0,0); fill-rule: nonzero; opacity: 1;" vector-effect="non-scaling-stroke"  transform=" translate(-3.23, -3.37)" d="M 6.27 0 L 0.17999999999999972 0 C 0.17999999999999972 0 -2.7755575615628914e-16 2.24 -2.7755575615628914e-16 2.24 L 0.2399999999999997 2.24 C 0.3799999999999997 0.6300000000000001 0.5299999999999997 0.30000000000000027 2.0399999999999996 0.30000000000000027 C 2.2199999999999998 0.30000000000000027 2.4799999999999995 0.30000000000000027 2.5799999999999996 0.3200000000000003 C 2.7899999999999996 0.36000000000000026 2.7899999999999996 0.4700000000000003 2.7899999999999996 0.7000000000000003 L 2.7899999999999996 5.95 C 2.7899999999999996 6.29 2.7899999999999996 6.43 1.7399999999999995 6.43 L 1.3399999999999994 6.43 L 1.3399999999999994 6.739999999999999 C 1.7499999999999993 6.709999999999999 2.7599999999999993 6.709999999999999 3.2199999999999993 6.709999999999999 C 3.6799999999999993 6.709999999999999 4.709999999999999 6.709999999999999 5.119999999999999 6.739999999999999 L 5.119999999999999 6.43 L 4.719999999999999 6.43 C 3.669999999999999 6.43 3.669999999999999 6.29 3.669999999999999 5.949999999999999 L 3.669999999999999 0.6999999999999993 C 3.669999999999999 0.4999999999999993 3.669999999999999 0.35999999999999927 3.849999999999999 0.3199999999999993 C 3.959999999999999 0.29999999999999927 4.2299999999999995 0.29999999999999927 4.419999999999999 0.29999999999999927 C 5.919999999999999 0.29999999999999927 6.0699999999999985 0.6299999999999992 6.209999999999999 2.2399999999999993 L 6.459999999999999 2.2399999999999993 C 6.459999999999999 2.2399999999999993 6.269999999999999 -8.881784197001252e-16 6.269999999999999 -8.881784197001252e-16 z" stroke-linecap="round" />
</g>
		<g transform="matrix(45 0 0 45 140.85 55.12)"  >
<path style="stroke: none; stroke-width: 1; stroke-dasharray: none; stroke-linecap: butt; stroke-dashoffset: 0; stroke-linejoin: miter; stroke-miterlimit: 4; fill: rgb(0,0,0); fill-rule: nonzero; opacity: 1;" vector-effect="non-scaling-stroke"  transform=" translate(-3.08, -3.38)" d="M 6.16 4.2 L 5.91 4.2 C 5.66 5.73 5.43 6.46 3.72 6.46 L 2.4000000000000004 6.46 C 1.9300000000000004 6.46 1.9100000000000004 6.39 1.9100000000000004 6.06 L 1.9100000000000004 3.3999999999999995 L 2.8000000000000003 3.3999999999999995 C 3.7700000000000005 3.3999999999999995 3.8800000000000003 3.7199999999999993 3.8800000000000003 4.569999999999999 L 4.130000000000001 4.569999999999999 L 4.130000000000001 1.9299999999999993 L 3.880000000000001 1.9299999999999993 C 3.880000000000001 2.7799999999999994 3.770000000000001 3.089999999999999 2.8000000000000007 3.089999999999999 L 1.9100000000000006 3.089999999999999 L 1.9100000000000006 0.6999999999999988 C 1.9100000000000006 0.36999999999999883 1.9300000000000006 0.2999999999999988 2.4000000000000004 0.2999999999999988 L 3.6800000000000006 0.2999999999999988 C 5.210000000000001 0.2999999999999988 5.470000000000001 0.8499999999999989 5.630000000000001 2.239999999999999 L 5.880000000000001 2.239999999999999 L 5.6000000000000005 -1.3322676295501878e-15 L 8.881784197001252e-16 -1.3322676295501878e-15 L 8.881784197001252e-16 0.29999999999999866 L 0.2300000000000009 0.29999999999999866 C 1.0000000000000009 0.29999999999999866 1.020000000000001 0.40999999999999864 1.020000000000001 0.7699999999999987 L 1.020000000000001 5.989999999999998 C 1.020000000000001 6.349999999999999 1.0000000000000009 6.459999999999998 0.23000000000000087 6.459999999999998 L 8.604228440844963e-16 6.459999999999998 L 8.604228440844963e-16 6.769999999999998 L 5.740000000000001 6.769999999999998 z" stroke-linecap="round" />
</g>
		<g transform="matrix(45 0 0 45 402.98 -46.8)"  >
<path style="stroke: none; stroke-width: 1; stroke-dasharray: none; stroke-linecap: butt; stroke-dashoffset: 0; stroke-linejoin: miter; stroke-miterlimit: 4; fill: rgb(0,0,0); fill-rule: nonzero; opacity: 1;" vector-effect="non-scaling-stroke"  transform=" translate(-3.5, -3.4)" d="M 3.76 2.95 L 5.13 0.9500000000000002 C 5.34 0.6300000000000001 5.68 0.31000000000000016 6.57 0.30000000000000016 L 6.57 1.6653345369377348e-16 L 4.19 1.6653345369377348e-16 L 4.19 0.30000000000000016 C 4.590000000000001 0.31000000000000016 4.8100000000000005 0.5300000000000001 4.8100000000000005 0.7600000000000002 C 4.8100000000000005 0.8600000000000002 4.790000000000001 0.8800000000000002 4.720000000000001 0.9900000000000002 C 4.720000000000001 0.9900000000000002 3.580000000000001 2.67 3.580000000000001 2.67 L 2.3000000000000007 0.75 C 2.2800000000000007 0.72 2.230000000000001 0.64 2.230000000000001 0.6 C 2.230000000000001 0.48 2.450000000000001 0.31 2.870000000000001 0.3 L 2.870000000000001 0 C 2.530000000000001 0.03 1.800000000000001 0.03 1.420000000000001 0.03 C 1.110000000000001 0.03 0.490000000000001 0.019999999999999997 0.120000000000001 0 L 0.120000000000001 0.3 L 0.310000000000001 0.3 C 0.860000000000001 0.3 1.050000000000001 0.37 1.240000000000001 0.6499999999999999 C 1.240000000000001 0.6499999999999999 3.070000000000001 3.42 3.070000000000001 3.42 L 1.4400000000000013 5.83 C 1.3000000000000012 6.03 1.0000000000000013 6.49 1.3322676295501878e-15 6.49 L 1.3322676295501878e-15 6.8 L 2.3800000000000012 6.8 L 2.3800000000000012 6.49 C 1.9200000000000013 6.48 1.7500000000000013 6.21 1.7500000000000013 6.03 C 1.7500000000000013 5.94 1.7800000000000014 5.9 1.8500000000000014 5.79 L 3.2600000000000016 3.7 L 4.840000000000002 6.08 C 4.860000000000001 6.12 4.8900000000000015 6.16 4.8900000000000015 6.19 C 4.8900000000000015 6.3100000000000005 4.670000000000002 6.48 4.240000000000001 6.49 L 4.240000000000001 6.8 C 4.590000000000001 6.77 5.320000000000001 6.77 5.690000000000001 6.77 C 6.110000000000001 6.77 6.570000000000001 6.779999999999999 6.990000000000001 6.8 L 6.990000000000001 6.49 L 6.800000000000001 6.49 C 6.280000000000001 6.49 6.07 6.44 5.860000000000001 6.13 C 5.860000000000001 6.13 3.760000000000001 2.9499999999999997 3.760000000000001 2.9499999999999997 z" stroke-linecap="round" />
</g>
</g>
</g>
<g transform="matrix(0.84 0 0 0.84 364.59 98.15)" style="" id="2064d920-2f77-44df-b10e-e9c797347a80"  >
		<text xml:space="preserve" font-family="Lato" font-size="40" font-style="normal" font-weight="900" style="stroke: none; stroke-width: 1; stroke-dasharray: none; stroke-linecap: butt; stroke-dashoffset: 0; stroke-linejoin: miter; stroke-miterlimit: 4; fill: rgb(0,0,0); fill-rule: nonzero; opacity: 1; white-space: pre;" ><tspan x="-11.4" y="12.57" >+</tspan></text>
</g>
</svg>